<?xml version="1.0" encoding="utf-8"?>
<!-- Generator: Adobe Illustrator 16.0.0, SVG Export Plug-In . SVG Version: 6.00 Build 0)  -->
<!DOCTYPE svg PUBLIC "-//W3C//DTD SVG 1.1//EN" "http://www.w3.org/Graphics/SVG/1.1/DTD/svg11.dtd">
<svg version="1.1" id="Layer_1" xmlns="http://www.w3.org/2000/svg" xmlns:xlink="http://www.w3.org/1999/xlink" x="0px" y="0px"
	 width="359.534px" height="454.585px" viewBox="-157.848 -202.585 359.534 454.585"
	 enable-background="new -157.848 -202.585 359.534 454.585" xml:space="preserve">
<rect x="-111.195" y="-153.073" fill="none" stroke="#FFFFFF" stroke-width="5" stroke-miterlimit="10" width="77.917" height="77.917"/>
<line fill="none" stroke="#FFFFFF" stroke-width="5" stroke-miterlimit="10" x1="-7.705" y1="-153.073" x2="121.611" y2="-153.073"/>
<line fill="none" stroke="#FFFFFF" stroke-width="5.4363" stroke-miterlimit="10" x1="-7.705" y1="-124.936" x2="145.167" y2="-124.936"/>
<line fill="none" stroke="#FFFFFF" stroke-width="5.4363" stroke-miterlimit="10" x1="-7.705" y1="-99.366" x2="145.167" y2="-99.366"/>
<line fill="none" stroke="#FFFFFF" stroke-width="5.4363" stroke-miterlimit="10" x1="-7.705" y1="-75.546" x2="145.167" y2="-75.546"/>
<line fill="none" stroke="#FFFFFF" stroke-width="5" stroke-miterlimit="10" x1="141.873" y1="-196.611" x2="195.676" y2="-144.637"/>
<path fill="none" stroke="#FFFFFF" stroke-width="5" stroke-miterlimit="10" d="M186.2-148.793h-16.686h-10.466h-12.986v-12.986
	v-15.806v-9.514c0-7.146-5.847-12.986-12.986-12.986H-131h-11.361h-12.986v12.986v22.849v377.915v22.849V249.5h12.986H-131h305.839
	H186.2h12.986v-12.986v-22.849v-349.472C199.187-142.947,193.327-148.793,186.2-148.793z"/>
</svg>
